<svg preserveAspectRatio="none" width="100%" height="100%" overflow="visible" style="display: block;" viewBox="0 0 100 100" fill="none" xmlns="http://www.w3.org/2000/svg">
<g id="&#236;&#149;&#132;&#236;&#157;&#180;&#236;&#189;&#152;">
<path id="Vector" d="M91.6673 45.8333H82.084C80.834 41.25 78.7507 36.6667 75.834 33.3333L90.0006 10.8333L82.9173 6.25L69.584 27.5C67.9173 26.25 66.6673 25.4167 64.584 24.5833L68.334 9.58333L60.4173 7.5L57.084 21.6667C54.584 21.25 52.5006 20.8333 50.0006 20.8333C34.584 20.8333 21.6673 31.6667 17.9173 45.8333H8.33398C8.33398 62.9167 18.7507 77.5 33.334 84.1667V91.6667H66.6673V84.1667C81.2506 77.5 91.6673 62.9167 91.6673 45.8333ZM50.0006 29.1667C60.834 29.1667 70.0007 36.25 73.334 45.8333H26.6673C30.0007 36.25 39.1673 29.1667 50.0006 29.1667Z" fill="var(--fill-0, white)"/>
</g>
</svg>
